HIERARCHY
ROOT reference
{
  OFFSET 0 0 0
  CHANNELS 6 Xposition Yposition Zposition Zrotation Xrotation Yrotation
  JOINT root
  {
    OFFSET 0 93.2 0
    CHANNELS 6 Xposition Yposition Zposition Zrotation Xrotation Yrotation
    JOINT Hips
    {
      OFFSET 0 0 0
      CHANNELS 6 Xposition Yposition Zposition Zrotation Xrotation Yrotation
      JOINT Spine
      {
        OFFSET -0.000112 -0.110504 -0.001517
        CHANNELS 6 Xposition Yposition Zposition Zrotation Xrotation Yrotation
        JOINT Spine1
        {
          OFFSET -0.004703 18.5419 0.769486
          CHANNELS 6 Xposition Yposition Zposition Zrotation Xrotation Yrotation
          JOINT Spine2
          {
            OFFSET -0.211107 18.5065 -1.40505
            CHANNELS 6 Xposition Yposition Zposition Zrotation Xrotation Yrotation
            JOINT Neck
            {
              OFFSET -0.402048 18.5553 0.293624
              CHANNELS 6 Xposition Yposition Zposition Zrotation Xrotation Yrotation
              JOINT Head
              {
                OFFSET 0.036758 11.1065 3.10406
                CHANNELS 6 Xposition Yposition Zposition Zrotation Xrotation Yrotation
                End Site
                {
                  OFFSET 0 0 0
                }
              }
            }
            JOINT RightShoulder
            {
              OFFSET -4.04021 18.4743 0.292041
              CHANNELS 6 Xposition Yposition Zposition Zrotation Xrotation Yrotation
              JOINT RightArm
              {
                OFFSET -15.7828 -2.66499 1.55187
                CHANNELS 6 Xposition Yposition Zposition Zrotation Xrotation Yrotation
                JOINT RightForearm
                {
                  OFFSET -11.9459 -26.8691 0.092028
                  CHANNELS 6 Xposition Yposition Zposition Zrotation Xrotation Yrotation
                  JOINT RightHand
                  {
                    OFFSET -3.96792 -23.6553 6.78852
                    CHANNELS 6 Xposition Yposition Zposition Zrotation Xrotation Yrotation
                    End Site
                    {
                      OFFSET 0 0 0
                    }
                  }
                }
              }
            }
            JOINT LeftShoulder
            {
              OFFSET 3.23782 18.6313 0.312819
              CHANNELS 6 Xposition Yposition Zposition Zrotation Xrotation Yrotation
              JOINT LeftArm
              {
                OFFSET 15.9305 -1.84845 1.18651
                CHANNELS 6 Xposition Yposition Zposition Zrotation Xrotation Yrotation
                JOINT LeftForearm
                {
                  OFFSET 8.21785 -28.2332 0.134938
                  CHANNELS 6 Xposition Yposition Zposition Zrotation Xrotation Yrotation
                  JOINT LeftHand
                  {
                    OFFSET 1.69727 -23.974 6.61576
                    CHANNELS 6 Xposition Yposition Zposition Zrotation Xrotation Yrotation
                    End Site
                    {
                      OFFSET 0 0 0
                    }
                  }
                }
              }
            }
          }
        }
      }
      JOINT RightUpLeg
      {
        OFFSET -9.54875 0.104805 -0.411403
        CHANNELS 6 Xposition Yposition Zposition Zrotation Xrotation Yrotation
        JOINT RightLeg
        {
          OFFSET 0.932777 -44.8888 -3.36501
          CHANNELS 6 Xposition Yposition Zposition Zrotation Xrotation Yrotation
          JOINT RightFoot
          {
            OFFSET 1.15328 -40.9391 -4.27008
            CHANNELS 6 Xposition Yposition Zposition Zrotation Xrotation Yrotation
            JOINT RightToe
            {
              OFFSET -4.35868 -6.73977 16.1157
              CHANNELS 6 Xposition Yposition Zposition Zrotation Xrotation Yrotation
              End Site
              {
                OFFSET 0 0 0
              }
            }
          }
        }
      }
      JOINT LeftUpLeg
      {
        OFFSET 9.54876 -0.104797 0.411411
        CHANNELS 6 Xposition Yposition Zposition Zrotation Xrotation Yrotation
        JOINT LeftLeg
        {
          OFFSET 6.38178 -44.2265 5.52176
          CHANNELS 6 Xposition Yposition Zposition Zrotation Xrotation Yrotation
          JOINT LeftFoot
          {
            OFFSET 5.39182 -40.8137 -0.863033
            CHANNELS 6 Xposition Yposition Zposition Zrotation Xrotation Yrotation
            JOINT LeftToe
            {
              OFFSET 1.28784 -7.36053 16.3799
              CHANNELS 6 Xposition Yposition Zposition Zrotation Xrotation Yrotation
              End Site
              {
                OFFSET 0 0 0
              }
            }
          }
        }
      }
    }
  }
}
MOTION
Frames:	4
Frame Time:	0.0333333
0 0 0 0 0 -0 0 93.2 -4e-06 -15.1104 9.44492 66.2721 0 0 0 5.44941 -0.251178 -0.274133 -0.000112 -0.110504 -0.001517 4.38484 3.30484 1.14167 -0.004703 18.5419 0.769486 6.05638 4.45032 -0.866643 -0.211107 18.5065 -1.40505 4.06675 3.10599 -0.453477 -0.402048 18.5553 0.293624 -1.19817 -4.96602 -21.5594 0.036758 11.1065 3.10406 -3.56051 -9.89887 -28.0547 -4.04021 18.4743 0.292041 -2.46808 -0.878053 9.07711 -15.7828 -2.66499 1.55187 -109.534 -49.4575 -116.394 -11.9459 -26.8691 0.092028 27.5395 -21.2171 16.5903 -3.96792 -23.6553 6.78852 -23.8006 17.359 -67.5978 3.23782 18.6313 0.312819 0.376429 -0.16349 8.91492 15.9305 -1.84845 1.18651 9.26279 10.2259 19.721 8.21785 -28.2332 0.134938 -37.2417 -31.3398 -22.2691 1.69727 -23.974 6.61576 -0.523524 -6.91222 -7.0619 -9.54875 0.104805 -0.411403 -31.7668 -44.019 -22.2206 0.932777 -44.8888 -3.36501 10.7615 36.6208 -3.49806 1.15328 -40.9391 -4.27008 1.3544 -4.67423 0.725501 -4.35868 -6.73977 16.1157 -1e-06 5.27773e-14 -3e-06 9.54876 -0.104797 0.411411 3.65431 -4.88139 16.6526 6.38178 -44.2265 5.52176 -0.397347 4.46783 0.61421 5.39182 -40.8137 -0.863033 -15.1862 -2.62171 -0.996894 1.28784 -7.36053 16.3799 -1.829 -10.3229 -0.152467 
0 0 0 0 0 -0 0 93.2 -4e-06 -15.1193 9.32659 66.2182 0 0 0 5.10549 -0.234567 -0.257605 -0.000112 -0.110504 -0.001517 4.4824 3.40997 0.871718 -0.004703 18.5419 0.769486 6.19716 4.61832 -1.0483 -0.211107 18.5065 -1.40505 4.16 3.22534 -0.570948 -0.402048 18.5553 0.293624 -0.903873 -5.29146 -21.7942 0.036758 11.1065 3.10406 -3.00382 -10.5533 -28.2742 -4.04021 18.4743 0.292041 -2.38267 -0.885883 9.50236 -15.7828 -2.66499 1.55187 -107.831 -48.875 -111.646 -11.9459 -26.8691 0.092028 23.4757 -18.9677 13.7731 -3.96792 -23.6553 6.78852 -20.818 20.5943 -72.8495 3.23782 18.6313 0.312819 0.297129 -0.170911 8.89227 15.9305 -1.84845 1.18651 8.84593 9.28658 19.2225 8.21785 -28.2332 0.134938 -37.9793 -31.6794 -22.8182 1.69727 -23.974 6.61576 -0.492768 -8.03608 -4.41882 -9.54875 0.104805 -0.411403 -32.2316 -44.6745 -23.3296 0.932777 -44.8888 -3.36501 11.2871 37.924 -3.81389 1.15328 -40.9391 -4.27008 0.104069 -4.69546 0.55901 -4.35868 -6.73977 16.1157 -1e-06 5.26779e-14 -3e-06 9.54876 -0.104797 0.411411 3.332 -4.2669 18.2002 6.38178 -44.2265 5.52176 -0.230192 2.65578 0.361035 5.39182 -40.8137 -0.863033 -13.0317 -4.91757 -1.54053 1.28784 -7.36053 16.3799 -3.682 -6.22391 -0.197857 
0 0 0 0 0 -0 0 93.2 -4e-06 -15.1402 9.23094 66.235 0 0 0 4.67276 -0.213801 -0.236544 -0.000112 -0.110504 -0.001517 4.56177 3.41469 0.552864 -0.004703 18.5419 0.769486 6.3118 4.65344 -1.25536 -0.211107 18.5065 -1.40505 4.23716 3.25476 -0.709082 -0.402048 18.5553 0.293624 -0.669694 -5.52455 -22.0052 0.036758 11.1065 3.10406 -2.55455 -11.0391 -28.4501 -4.04021 18.4743 0.292041 -2.31447 -0.899912 9.9644 -15.7828 -2.66499 1.55187 -105.318 -48.6546 -104.372 -11.9459 -26.8691 0.092028 18.9121 -16.0925 10.7248 -3.96792 -23.6553 6.78852 -15.1371 24.5547 -80.108 3.23782 18.6313 0.312819 0.155602 -0.176654 8.69988 15.9305 -1.84845 1.18651 8.85931 8.75486 18.5692 8.21785 -28.2332 0.134938 -38.3512 -31.8472 -23.096 1.69727 -23.974 6.61576 -0.430937 -8.98339 -2.0049 -9.54875 0.104805 -0.411403 -32.4918 -45.1319 -24.3856 0.932777 -44.8888 -3.36501 11.5734 38.6142 -3.9899 1.15328 -40.9391 -4.27008 -1.24765 -4.29507 0.183267 -4.35868 -6.73977 16.1157 -1e-06 5.1684e-14 -3e-06 9.54876 -0.104797 0.411411 3.13673 -4.81138 20.2383 6.38178 -44.2265 5.52176 -0.217058 2.50935 0.340829 5.39182 -40.8137 -0.863033 -9.93028 -6.86109 -1.6006 1.28784 -7.36053 16.3799 -5.86461 -3.46603 -0.152151 
0 0 0 0 0 -0 0 93.2 -4e-06 -15.1771 9.19343 66.1756 0 0 0 4.31422 -0.196716 -0.219052 -0.000112 -0.110504 -0.001517 4.55798 3.41586 0.375267 -0.004703 18.5419 0.769486 6.30709 4.67711 -1.30961 -0.211107 18.5065 -1.40505 4.23356 3.27167 -0.745508 -0.402048 18.5553 0.293624 -0.57907 -5.80411 -22.1904 0.036758 11.1065 3.10406 -2.37656 -11.5949 -28.5859 -4.04021 18.4743 0.292041 -2.14241 -0.881581 10.4076 -15.7828 -2.66499 1.55187 -103.026 -48.2151 -97.2324 -11.9459 -26.8691 0.092028 14.7092 -13.1032 8.04611 -3.96792 -23.6553 6.78852 -9.26501 26.3394 -87.6009 3.23782 18.6313 0.312819 0.0688834 -0.177007 8.43862 15.9305 -1.84845 1.18651 9.19325 8.63559 17.9765 8.21785 -28.2332 0.134938 -38.265 -31.8085 -23.0315 1.69727 -23.974 6.61576 -0.291329 -9.28167 -0.164963 -9.54875 0.104805 -0.411403 -32.6486 -45.4116 -25.0649 0.932777 -44.8888 -3.36501 11.5676 38.6002 -3.98627 1.15328 -40.9391 -4.27008 -1.6917 -3.47258 -0.0476274 -4.35868 -6.73977 16.1157 -1e-06 5.10877e-14 -3e-06 9.54876 -0.104797 0.411411 3.19604 -5.72313 20.7717 6.38178 -44.2265 5.52176 -0.330192 3.75071 0.513312 5.39182 -40.8137 -0.863033 -7.91699 -8.80075 -1.55031 1.28784 -7.36053 16.3799 -3.33547 -1.34946 -0.000864828 
